<?xml version="1.0" encoding="utf-8"?>
<!-- Generator: Adobe Illustrator 18.1.0, SVG Export Plug-In . SVG Version: 6.00 Build 0)  -->
<svg version="1.1" id="Ebene_1" xmlns="http://www.w3.org/2000/svg" xmlns:xlink="http://www.w3.org/1999/xlink" x="0px" y="0px"
	 viewBox="-34.4 55 686 686" enable-background="new -34.4 55 686 686" xml:space="preserve">
<circle fill="#020202" stroke="#000000" stroke-miterlimit="10" cx="308.6" cy="398" r="342.5"/>
<g>
	<path fill="#FFFFFF" d="M584.1,399.7c0,0-126.9-0.6-268.5,21.3c-157.4,24.3-276.3,59.5-283.8,53.2c-4-4.3,10.1-22.6,62.7-62.7
		c40.8-29.3,101.1-63.4,151.4-84c10.9-4.5,10.6-13,10.6-13s-0.6-5.1-5.9-8.3c-6.5-3.9-17.7-5.9-17.7-5.9s-23.4-3.5-62.7,2.3
		c-50.4,7.6-116.8,23.2-119.4,24.9c-2.6,1.6-3.2,6.5,0,10.6c3.3,4.2,8.6,6.7,13,5.9s50.2-15.7,94.6-23.7c33.2-5.9,63.9-4.8,63.9-4.8
		s-78.7,40.8-142.1,82.4c-50.4,33.1-69.2,65.6-69.6,69c-0.4,3.4-0.3,9,3.5,15.4c3.2,5.4,5.6,6.8,10.6,8.3c5,1.5,22.9,4.2,45-2.3
		c61.1-18.1,158.2-34.9,264.9-53.2c91.3-15.6,145.7-14.9,195.2-18.9c40-3.2,54.4-5.9,54.4-5.9s22.4-5.6,22.4-8.3
		C606.6,399.4,584.1,399.7,584.1,399.7z"/>
	<path fill="#FFFFFF" d="M250.6,348.8c-6.9,0.7-15.5,7.5-23.7,16.6c-7.8,8.7-8.3,18.9-8.3,18.9s-1,9.6,4.8,15.4
		c5.4,5.4,12.3,7,17.7,7.1c5.4,0.1,10.4-1.1,20.1-4.1c10.9-3.4,21.3-8.9,21.3-8.9s1.5,7.7,7.1,11.8c5.6,4.1,10.4,5.1,15.4,4.8
		c5-0.3,16.4-2.3,31.9-10.6c19.2-10.3,37.8-22.4,37.8-22.4s3,8.9,9.5,13c6.5,4.2,11.9,3.8,16.6,3.5c4.7-0.3,17.2-1.8,24.9-5.9
		c7.6-4.1,11.8-11.4,11.8-13c0-1.6-2.9-2.5-7.1-1.2c-4.6,1.5-14.4,3-17.8,3.2c-3.4,0.1-14.7-0.5-16.5-2c-1.8-1.5-2-2.6,0-5.9
		c2.6-4.3,8.6-7.1,9.5-9.5c0.9-2.3,2.4-7.9-1.2-11.8c-4-4.3-10.1-5.9-14.2-4.8c-4.1,1.2-20.9,17.7-43.8,29.6
		c-21.4,11.1-45,16.6-45,16.6s0.6-9.6,0.6-15.8c-0.2-2.1-1.5-14.9-5.4-16.7c-2.7-1.3-5.8-1.4-7.9-0.6c-1.7,0.6-2.9,2.3-3.8,1.5
		c-2.3-2.1-12.9-6.1-16.4-6.7C265,350,257.5,348.1,250.6,348.8z M268.9,368.6c5.1,1.2,7.8,5.1,7.8,5.1s-10.2,6.3-20.1,9.5
		c-8.3,2.7-15.6,4.5-16.6,2.3c-1-2.1,12.2-15.3,16.6-16.6C260.9,367.6,263.9,367.5,268.9,368.6z"/>
	<path fill="#FFFFFF" d="M439.9,320.5c10.2-8.3-6.2-20.1-14.2-16.6C420.2,307.9,424.3,330.1,439.9,320.5z"/>
</g>
</svg>
